<?xml version="1.0" standalone="no"?>
<!DOCTYPE svg PUBLIC "-//W3C//DTD SVG 20010904//EN"
 "http://www.w3.org/TR/2001/REC-SVG-20010904/DTD/svg10.dtd">
<svg version="1.0" xmlns="http://www.w3.org/2000/svg"
 width="1688.000000pt" height="1688.000000pt" viewBox="0 0 1688.000000 1688.000000"
 preserveAspectRatio="xMidYMid meet">
<metadata>
Created by potrace 1.14, written by Peter Selinger 2001-2017
</metadata>
<g transform="translate(0.000000,1688.000000) scale(0.100000,-0.100000)"
fill="#000000" stroke="none">
<path d="M37 11193 c-4 -3 -7 -1250 -7 -2770 l0 -2763 780 0 780 0 0 865 0
865 2840 0 2840 0 0 690 0 690 -2840 0 -2840 0 0 505 0 505 3175 0 3175 0 0
710 0 710 -3948 0 c-2172 0 -3952 -3 -3955 -7z"/>
<path d="M8937 11193 c-4 -3 -7 -1250 -7 -2770 l0 -2763 3955 0 3955 0 0 670
0 670 -3175 0 -3175 0 0 385 0 385 2840 0 2840 0 0 650 0 650 -2840 0 -2840 0
0 395 0 395 3175 0 3175 0 0 670 0 670 -3948 0 c-2172 0 -3952 -3 -3955 -7z"/>
</g>
</svg>
